#!OML:ASF F:\VICON\USERDATA\INSTALL\rory3\rory3.ASF
:FULLY-SPECIFIED
:DEGREES
1904
root 0.523343 18.0313 -3.1743 0.142522 -46.7368 7.97132
lowerback 10.7309 -1.15687 -5.99742
upperback -0.198705 -2.13679 2.75081
thorax -5.91948 -0.833624 6.64804
lowerneck -26.1213 5.3142 -5.80436
upperneck 21.7568 10.0769 -1.47396
head 11.1661 3.81871 2.0675
rclavicle -4.77083e-014 -1.43125e-014
rhumerus -30.4295 9.63301 -73.6034
rradius 125.51
rwrist -1.06703
rhand -16.8004 25.4711
rfingers 7.12502
rthumb 9.42793 -4.29802
lclavicle -4.77083e-014 -1.43125e-014
lhumerus -5.84448 -9.46846 78.4415
lradius 128.844
lwrist -5.11187
lhand -17.9777 10.7817
lfingers 7.12502
lthumb 8.29188 40.5989
rfemur -33.0682 -3.2472 6.21617
rtibia 57.7127
rfoot -5.94245 1.05477
rtoes 0.61349
lfemur -5.38046 1.84345 -19.7329
ltibia 33.6877
lfoot 1.88023 -17.9339
ltoes -22.851
1905
root 0.568355 18.0792 -3.21898 0.697426 -46.0363 7.6042
lowerback 10.4788 -1.03331 -5.86235
upperback -0.281859 -1.94855 2.63061
thorax -5.9033 -0.744587 6.40486
lowerneck -26.1874 5.02937 -5.73454
upperneck 21.7239 9.62762 -1.36558
head 11.1738 3.63831 2.02534
rclavicle 1.23246e-014 -1.11319e-014
rhumerus -30.9714 9.20469 -73.6783
rradius 125.669
rwrist -1.04473
rhand -17.0578 25.4554
rfingers 7.12502
rthumb 9.17954 -4.32483
lclavicle 1.23246e-014 -1.11319e-014
lhumerus -5.73681 -9.92651 78.4479
lradius 128.623
lwrist -4.94998
lhand -17.5416 9.89758
lfingers 7.12502
lthumb 8.71268 39.6978
rfemur -32.1566 -3.58911 6.98135
rtibia 59.206
rfoot -5.59216 0.809376
rtoes 0.441106
lfemur -6.86782 2.10616 -19.2793
ltibia 34.9401
lfoot 1.90522 -17.7302
ltoes -24.6175
1906
root 0.610266 18.1176 -3.26581 1.32416 -45.1902 7.01825
lowerback 10.2513 -1.13115 -5.7073
upperback -0.297869 -2.03885 2.79843
thorax -5.77707 -0.796475 6.49955
lowerneck -26.322 4.80813 -6.29092
upperneck 21.622 9.49075 -1.18668
head 11.1264 3.55745 2.15431
rclavicle 5.04913e-014 8.74653e-015
rhumerus -31.0764 9.38304 -73.6467
rradius 125.715
rwrist -1.07931
rhand -17.2144 25.4142
rfingers 7.12502
rthumb 9.02845 -4.37256
lclavicle 5.04913e-014 8.74653e-015
lhumerus -5.75409 -9.63347 78.6584
lradius 128.497
lwrist -4.9386
lhand -17.4448 9.95923
lfingers 7.12502
lthumb 8.80612 39.7555
rfemur -31.0529 -4.05201 7.94397
rtibia 60.5528
rfoot -4.99847 0.480833
rtoes 0.411109
lfemur -8.27203 2.36588 -18.6666
ltibia 36.348
lfoot 0.766748 -16.2645
ltoes -26.9791
1907
root 0.658499 18.1408 -3.31634 1.98127 -44.0976 6.30647
lowerback 10.1591 -1.40732 -5.43719
upperback -0.283092 -2.3562 3.05993
thorax -5.66001 -0.963443 6.66465
lowerneck -26.6593 4.64837 -7.061
upperneck 21.6483 9.51055 -0.853147
head 11.1393 3.54064 2.40676
rclavicle -2.98177e-014 8.74653e-015
rhumerus -30.9424 9.84667 -73.5732
rradius 125.711
rwrist -1.06517
rhand -17.1053 25.3481
rfingers 7.12502
rthumb 9.13374 -4.43413
lclavicle -2.98177e-014 8.74653e-015
lhumerus -5.75341 -8.98158 78.9023
lradius 128.426
lwrist -4.86716
lhand -17.4016 9.96493
lfingers 7.12502
lthumb 8.84778 39.7594
rfemur -29.8206 -4.78995 9.02432
rtibia 61.7367
rfoot -4.15067 0.0333201
rtoes 0.403845
lfemur -9.65057 2.52483 -17.9447
ltibia 37.7812
lfoot -0.839379 -12.9496
ltoes -28.3578
1908
root 0.709559 18.1555 -3.36616 2.50174 -42.9993 5.76587
lowerback 10.1263 -1.41144 -5.04934
upperback -0.225054 -2.32226 2.89027
thorax -5.60606 -0.963716 6.25105
lowerneck -27.1077 4.34926 -6.8957
upperneck 21.7237 9.01273 -0.615178
head 11.2586 3.35308 2.40516
rclavicle 7.85199e-014 2.14687e-014
rhumerus -31.1909 9.33774 -73.7807
rradius 125.928
rwrist -1.30668
rhand -17.284 25.1554
rfingers 7.12502
rthumb 8.96132 -4.63431
lclavicle 7.85199e-014 2.14687e-014
lhumerus -5.24699 -9.33808 78.7608
lradius 128.293
lwrist -4.71134
lhand -17.437 10.2443
lfingers 7.12502
lthumb 8.81365 40.0403
rfemur -28.5649 -5.51271 10.0039
rtibia 62.6997
rfoot -3.02744 -0.466076
rtoes 0.40368
lfemur -11.0027 2.69921 -17.3504
ltibia 39.0814
lfoot -1.9387 -8.98728
ltoes -26.8239
1909
root 0.754639 18.1663 -3.40929 2.89444 -42.0028 5.41277
lowerback 9.97701 -1.34289 -4.74165
upperback -0.135669 -2.20125 2.62985
thorax -5.46512 -0.923238 5.76938
lowerneck -27.5084 4.0284 -6.67269
upperneck 21.6928 8.45281 -0.398919
head 11.3358 3.14723 2.37035
rclavicle 3.63776e-014 1.90833e-014
rhumerus -31.474 8.89355 -74.0602
rradius 126.255
rwrist -2.29881
rhand -18.1751 24.8385
rfingers 7.12502
rthumb 8.10137 -4.98623
lclavicle 3.63776e-014 1.90833e-014
lhumerus -4.69242 -9.83117 78.6468
lradius 128.117
lwrist -4.7764
lhand -17.6191 10.2596
lfingers 7.12502
lthumb 8.63793 40.0629
rfemur -27.2664 -6.1733 10.8358
rtibia 63.418
rfoot -1.65593 -0.781974
rtoes 0.309212
lfemur -12.2443 2.83265 -16.908
ltibia 40.0721
lfoot -2.99394 -6.14735
ltoes -24.6294
1910
root 0.79324 18.1693 -3.44343 3.22164 -41.139 5.12404
lowerback 9.58617 -1.3717 -4.47134
upperback 0.0466159 -2.20221 2.43885
thorax -5.06925 -0.951295 5.38805
lowerneck -27.8041 3.78312 -6.71833
upperneck 21.5059 8.09075 -0.199213
head 11.318 3.01488 2.39414
rclavicle 2.06736e-014 -1.11319e-014
rhumerus -31.3345 8.73641 -74.2761
rradius 126.424
rwrist -3.25946
rhand -18.5243 24.663
rfingers 7.12502
rthumb 7.76434 -5.17445
lclavicle 2.06736e-014 -1.11319e-014
lhumerus -4.23214 -9.99385 78.6161
lradius 128.019
lwrist -5.1208
lhand -17.8919 10.4164
lfingers 7.12502
lthumb 8.37461 40.2304
rfemur -25.8317 -6.68688 11.5746
rtibia 63.8673
rfoot -0.436196 -0.993041
rtoes 0.100832
lfemur -13.3121 2.89894 -16.5493
ltibia 40.6888
lfoot -4.48551 -4.53277
ltoes -24.8509
1911
root 0.829202 18.158 -3.4732 3.28688 -40.397 5.02506
lowerback 9.35714 -1.33015 -4.50172
upperback 0.216785 -2.14933 2.25122
thorax -4.77391 -0.940064 5.18447
lowerneck -27.9284 3.55879 -6.63327
upperneck 21.2877 7.72553 -0.135041
head 11.2713 2.8764 2.34164
rclavicle 1.88647e-013 6.36111e-015
rhumerus -31.1467 8.2522 -74.197
rradius 126.456
rwrist -3.1891
rhand -17.5012 24.7729
rfingers 7.12502
rthumb 8.75166 -5.0257
lclavicle 1.88647e-013 6.36111e-015
lhumerus -3.84602 -10.2159 78.6382
lradius 127.952
lwrist -5.60591
lhand -18.199 10.7938
lfingers 7.12502
lthumb 8.07824 40.6194
rfemur -24.1792 -7.11405 12.1012
rtibia 64.0749
rfoot 0.435256 -1.0423
rtoes 0.0518541
lfemur -14.106 2.8953 -16.3709
ltibia 40.9782
lfoot -5.89892 -3.63554
ltoes -24.1867
1912
root 0.861567 18.1317 -3.50798 3.41568 -39.687 4.871
lowerback 9.5024 -1.23923 -4.97627
upperback 0.097336 -2.08016 2.38139
thorax -4.96897 -0.883558 5.59433
lowerneck -27.821 3.40017 -6.60605
upperneck 21.2048 7.53159 -0.321269
head 11.2403 2.76993 2.23239
rclavicle 1.35174e-014 -1.98785e-014
rhumerus -31.3275 8.14079 -73.6818
rradius 126.58
rwrist -2.98888
rhand -16.8329 24.9586
rfingers 7.12502
rthumb 9.3966 -4.81197
lclavicle 1.35174e-014 -1.98785e-014
lhumerus -3.86854 -10.256 79.1249
lradius 127.929
lwrist -6.0882
lhand -18.3838 10.9116
lfingers 7.12502
lthumb 7.89989 40.744
rfemur -22.57 -7.48055 12.7217
rtibia 64.0535
rfoot 1.07807 -0.821788
rtoes -0.364495
lfemur -14.9131 3.01239 -16.0955
ltibia 41.0608
lfoot -6.94839 -3.22766
ltoes -24.3264
1913
root 0.892063 18.0881 -3.54976 3.70711 -38.9651 4.56169
lowerback 9.7076 -1.12537 -5.43192
upperback -0.107432 -1.98 2.58516
thorax -5.29274 -0.802393 6.07442
lowerneck -27.6134 3.18912 -6.70974
upperneck 21.123 7.28193 -0.407603
head 11.1836 2.64291 2.16867
rclavicle -5.52621e-014 1.35174e-014
rhumerus -31.5608 8.2185 -73.3474
rradius 126.759
rwrist -3.23232
rhand -17.0456 24.9763
rfingers 7.12502
rthumb 9.19134 -4.80338
lclavicle -5.52621e-014 1.35174e-014
lhumerus -3.83929 -10.3416 79.6936
lradius 127.955
lwrist -6.35068
lhand -18.3222 10.9546
lfingers 7.12502
lthumb 7.95937 40.7847
rfemur -21.0771 -7.67049 13.5689
rtibia 63.8117
rfoot 1.50276 -0.065574
rtoes -0.113067
lfemur -15.8184 3.29325 -15.6347
ltibia 41.0697
lfoot -7.54302 -2.77355
ltoes -26.4439
1914
root 0.920604 18.0306 -3.59017 3.91637 -38.3253 4.38367
lowerback 9.68227 -0.989065 -5.69317
upperback -0.166091 -1.83042 2.51671
thorax -5.3568 -0.717815 6.13191
lowerneck -27.5153 2.92158 -6.7541
upperneck 21.0377 6.86042 -0.202615
head 11.1379 2.48374 2.17708
rclavicle -3.99557e-014 -2.22639e-014
rhumerus -31.5585 8.02953 -73.4984
rradius 126.849
rwrist -3.4587
rhand -17.4092 24.902
rfingers 7.12502
rthumb 8.84045 -4.89282
lclavicle -3.99557e-014 -2.22639e-014
lhumerus -3.52894 -10.5969 79.9082
lradius 127.973
lwrist -6.41793
lhand -18.2937 11.1288
lfingers 7.12502
lthumb 7.98684 40.9579
rfemur -19.6031 -7.65536 14.3394
rtibia 63.314
rfoot 1.6495 1.31606
rtoes 2.0179
lfemur -16.677 3.67484 -15.3142
ltibia 41.0908
lfoot -7.8206 -1.99878
ltoes -28.3173
1915
root 0.950596 17.9582 -3.63038 4.0295 -37.8051 4.32231
lowerback 9.61834 -0.861926 -5.83964
upperback -0.157352 -1.68539 2.29259
thorax -5.33543 -0.645819 5.95415
lowerneck -27.5354 2.7169 -6.76548
upperneck 20.9823 6.50521 0.0765904
head 11.1202 2.36461 2.22209
rclavicle -2.56432e-014 -1.27222e-014
rhumerus -31.3701 7.69559 -73.9066
rradius 126.815
rwrist -3.24677
rhand -17.3985 24.8253
rfingers 7.12502
rthumb 8.85079 -4.96904
lclavicle -2.56432e-014 -1.27222e-014
lhumerus -3.18152 -10.7365 79.9009
lradius 127.96
lwrist -6.38647
lhand -18.3086 11.191
lfingers 7.12502
lthumb 7.97248 41.0207
rfemur -18.1247 -7.47852 15.0055
rtibia 62.5593
rfoot 1.56628 1.44537
rtoes 2.14711
lfemur -17.4908 4.06006 -15.1171
ltibia 41.1632
lfoot -8.03174 -1.03588
ltoes -29.6741
1916
root 0.982336 17.8725 -3.6673 4.12262 -37.3161 4.32263
lowerback 9.51445 -0.776016 -5.99041
upperback -0.160891 -1.59265 2.08445
thorax -5.29602 -0.599829 5.80216
lowerneck -27.4276 2.57951 -6.83281
upperneck 20.8422 6.26878 0.289425
head 11.0457 2.2899 2.26592
rclavicle 2.55438e-014 -9.54166e-015
rhumerus -31.1087 7.48772 -74.2241
rradius 126.667
rwrist -2.54549
rhand -17.4558 24.8571
rfingers 7.12502
rthumb 8.79555 -4.93965
lclavicle 2.55438e-014 -9.54166e-015
lhumerus -2.90833 -10.676 79.9196
lradius 127.94
lwrist -6.44835
lhand -18.2555 11.1512
lfingers 7.12502
lthumb 8.02377 40.9789
rfemur -16.6562 -7.29207 15.6143
rtibia 61.5568
rfoot 1.28441 1.52958
rtoes 0.52549
lfemur -18.3235 4.38045 -14.9886
ltibia 41.3219
lfoot -8.27184 0.122534
ltoes -28.8048
